<svg width="64" height="64" viewBox="0 0 64 64" fill="none" xmlns="http://www.w3.org/2000/svg">
<g clip-path="url(#clip0_1943_65)">
<path d="M64 53.5534C64.0048 56.2993 62.9142 58.9347 60.968 60.8797C59.022 62.8247 56.3799 63.9202 53.6229 63.925L10.4892 64C9.12408 64.0023 7.77185 63.7369 6.5097 63.2188C5.24756 62.7007 4.10023 61.94 3.13325 60.9803C2.16626 60.0206 1.39855 58.8805 0.873927 57.6253C0.349311 56.37 0.0780698 55.0241 0.0756935 53.6645L1.58271e-05 10.4466C-0.00479171 7.70068 1.08581 5.06533 3.0319 3.12029C4.97799 1.17524 7.62015 0.0798258 10.3772 0.0750216L53.5108 1.59028e-05C54.8759 -0.00236706 56.2281 0.263079 57.4902 0.781199C58.7524 1.29932 59.8998 2.05997 60.8667 3.01971C61.8337 3.97945 62.6014 5.11948 63.1261 6.37474C63.6507 7.62998 63.922 8.97586 63.9243 10.3355L64 53.5534ZM12.3366 36.8041C13.196 57.4559 46.0268 58.6616 51.0996 40.3196C52.9385 33.6658 52.0791 20.1648 51.9775 11.2745C51.9714 10.98 51.8204 10.8328 51.5248 10.8328H38.6252C38.3235 10.8328 38.1725 10.9831 38.1725 11.2837C38.1787 19.0205 38.077 26.7419 37.8676 34.4481C37.7752 37.8164 36.1859 39.7613 33.0996 40.2828C27.7402 41.1847 26.1878 37.9177 25.966 33.178C25.6272 25.9628 25.5503 18.7015 25.7351 11.3942C25.7412 11.0199 25.5596 10.8328 25.1899 10.8328H12.5584C12.2627 10.8328 12.1118 10.98 12.1056 11.2745C11.9147 19.8396 11.9917 28.3494 12.3366 36.8041Z" fill="black" fill-opacity="0.5"/>
<path d="M51.1 40.3198C46.0271 58.6618 13.1963 57.4562 12.337 36.8043C11.992 28.3496 11.915 19.8398 12.106 11.2748C12.1121 10.9803 12.2631 10.833 12.5587 10.833H25.1902C25.5599 10.833 25.7415 11.0201 25.7354 11.3944C25.5506 18.7017 25.6276 25.963 25.9663 33.1782C26.1882 37.9179 27.7405 41.185 33.0999 40.2831C36.1862 39.7615 37.7756 37.8166 37.8679 34.4483C38.0773 26.7422 38.179 19.0208 38.1728 11.284C38.1728 10.9833 38.3238 10.833 38.6257 10.833H51.5251C51.8207 10.833 51.9717 10.9803 51.9779 11.2748C52.0794 20.165 52.9388 33.666 51.1 40.3198Z" fill="white" fill-opacity="0.5"/>
</g>
<defs>
<clipPath id="clip0_1943_65">
<rect width="64" height="64" fill="white"/>
</clipPath>
</defs>
</svg>
